<svg width="276" height="154" viewBox="0 0 276 154" fill="none" xmlns="http://www.w3.org/2000/svg">
<path d="M26.1005 4.56393C26.1005 2.46344 27.8033 0.760655 29.9038 0.760655H245.519C247.619 0.760655 249.322 2.46344 249.322 4.56393V150.447H26.1005V4.56393Z" fill="black" stroke="#9FA2A5" stroke-width="1.52131"/>
<path fill-rule="evenodd" clip-rule="evenodd" d="M0 145.105H275.421V150.794H0V145.105Z" fill="#D8D8D8"/>
<path fill-rule="evenodd" clip-rule="evenodd" d="M0 150.794H275.421C275.421 152.565 273.986 154 272.215 154H3.20618C1.43546 154 0 152.565 0 150.794Z" fill="#9FA2A5"/>
<path fill-rule="evenodd" clip-rule="evenodd" d="M120.594 145.105H157.413L157.006 145.946C156.243 147.519 154.648 148.518 152.899 148.518H125.108C123.359 148.518 121.764 147.519 121.001 145.946L120.594 145.105Z" fill="#9FA2A5"/>
</svg>
